<svg width="56" height="55" viewBox="0 0 56 55" fill="none" xmlns="http://www.w3.org/2000/svg">
<g id="Github">
<g id="Group">
<path id="Vector" fill-rule="evenodd" clip-rule="evenodd" d="M28.0733 2.56018C13.9492 2.56018 2.49609 14.0108 2.49609 28.1373C2.49609 39.4384 9.82473 49.0254 19.9873 52.4079C21.2652 52.6451 21.7345 51.853 21.7345 51.1775C21.7345 50.5676 21.7107 48.5527 21.6997 46.4155C14.5841 47.9627 13.0827 43.3978 13.0827 43.3978C11.9192 40.4414 10.2428 39.6553 10.2428 39.6553C7.92173 38.0678 10.4177 38.1009 10.4177 38.1009C12.9857 38.2809 14.3385 40.7366 14.3385 40.7366C16.6197 44.6459 20.3219 43.5159 21.7815 42.8628C22.011 41.2097 22.6739 40.081 23.4053 39.4422C17.7243 38.7963 11.7519 36.6028 11.7519 26.8023C11.7519 24.0099 12.7514 21.7282 14.3876 19.9366C14.1216 19.2928 13.2461 16.6914 14.635 13.1683C14.635 13.1683 16.7823 12.4809 21.6701 15.7901C23.7107 15.223 25.8992 14.9379 28.0733 14.9282C30.2461 14.9379 32.4358 15.2221 34.4803 15.7893C39.3621 12.4801 41.5069 13.1675 41.5069 13.1675C42.8991 16.6901 42.0236 19.292 41.7581 19.9358C43.398 21.7274 44.3904 24.009 44.3904 26.8015C44.3904 36.6252 38.407 38.7879 32.7115 39.4215C33.6294 40.2152 34.4468 41.7722 34.4468 44.158C34.4468 47.5803 34.4171 50.3346 34.4171 51.177C34.4171 51.8577 34.878 52.6552 36.174 52.4041C46.3307 49.0182 53.6509 39.4342 53.6509 28.1373C53.6504 14.0116 42.1986 2.56018 28.0733 2.56018Z" fill="#D5FF3F"/>
<path id="Vector_2" d="M12.1815 39.2829C12.1252 39.41 11.9253 39.4481 11.7432 39.3613C11.5568 39.2783 11.453 39.1051 11.5132 38.9776C11.5682 38.8463 11.7686 38.8103 11.9537 38.8979C12.14 38.9814 12.2459 39.1563 12.1811 39.2834L12.1815 39.2829ZM13.2175 40.4388C13.096 40.5519 12.8575 40.4994 12.6957 40.3202C12.528 40.1423 12.4967 39.9039 12.6208 39.7891C12.747 39.6764 12.9782 39.7298 13.146 39.9077C13.3128 40.0881 13.3459 40.3244 13.218 40.4392L13.2175 40.4388ZM14.2264 41.9115C14.0697 42.0208 13.813 41.9187 13.6546 41.6912C13.4979 41.4634 13.4979 41.1902 13.6589 41.0813C13.8169 40.972 14.0697 41.0707 14.2307 41.2961C14.3865 41.5269 14.3865 41.8005 14.2264 41.9115ZM15.6076 43.335C15.4678 43.4896 15.1688 43.4481 14.9503 43.2376C14.7271 43.0313 14.6648 42.7378 14.805 42.5836C14.9473 42.4286 15.2476 42.4718 15.4674 42.6811C15.6906 42.8869 15.758 43.1808 15.6085 43.3346L15.6076 43.335ZM17.5136 44.1614C17.4513 44.3617 17.1642 44.4528 16.874 44.3672C16.5847 44.2795 16.3954 44.0453 16.4547 43.8428C16.514 43.6408 16.8033 43.5464 17.0951 43.6374C17.3844 43.7247 17.5737 43.9576 17.5136 44.1614ZM19.6072 44.3143C19.6144 44.5252 19.3687 44.6997 19.065 44.7039C18.7588 44.7111 18.511 44.54 18.5081 44.3325C18.5081 44.1194 18.7486 43.947 19.0544 43.9411C19.3581 43.9356 19.6076 44.105 19.6076 44.3138L19.6072 44.3143ZM21.5546 43.983C21.5911 44.1885 21.3797 44.3998 21.0777 44.4561C20.7812 44.5112 20.5059 44.3833 20.4678 44.1796C20.4314 43.9686 20.6466 43.7573 20.943 43.7027C21.2455 43.6506 21.5165 43.7742 21.5546 43.983Z" fill="#D5FF3F"/>
</g>
</g>
</svg>
