<svg width="55" height="55" viewBox="0 0 69 70" fill="none" xmlns="http://www.w3.org/2000/svg">
<g id="instagram">
<path id="Vector" d="M34.5 27.5922C33.0898 27.5922 31.7113 28.0103 30.5388 28.7938C29.3663 29.5772 28.4524 30.6908 27.9127 31.9936C27.3731 33.2965 27.2319 34.7301 27.507 36.1132C27.7821 37.4962 28.4612 38.7667 29.4583 39.7638C30.4555 40.761 31.7259 41.4401 33.109 41.7152C34.4921 41.9903 35.9257 41.8491 37.2285 41.3094C38.5314 40.7698 39.6449 39.8559 40.4284 38.6834C41.2118 37.5109 41.63 36.1323 41.63 34.7222C41.63 33.7858 41.4456 32.8587 41.0873 31.9936C40.7289 31.1286 40.2038 30.3426 39.5417 29.6805C38.8796 29.0184 38.0936 28.4932 37.2285 28.1349C36.3635 27.7766 35.4363 27.5922 34.5 27.5922ZM63.0488 20.5484C63.0336 18.3282 62.6248 16.1283 61.8413 14.0509C61.2642 12.5308 60.3713 11.1503 59.2216 10.0006C58.0719 8.85084 56.6914 7.95798 55.1713 7.38092C53.0939 6.59738 50.8939 6.18854 48.6738 6.17342C44.965 5.97217 43.8725 5.97217 34.5 5.97217C25.1275 5.97217 24.035 5.97217 20.3263 6.17342C18.1061 6.18854 15.9061 6.59738 13.8287 7.38092C12.3086 7.95798 10.9281 8.85084 9.77841 10.0006C8.62867 11.1503 7.73581 12.5308 7.15875 14.0509C6.37521 16.1283 5.96638 18.3282 5.95125 20.5484C5.75 24.2572 5.75 25.3497 5.75 34.7222C5.75 44.0947 5.75 45.1872 5.95125 48.8959C5.9822 51.1239 6.39048 53.3306 7.15875 55.4222C7.73326 56.9353 8.62537 58.3078 9.775 59.4472C10.9198 60.6038 12.3032 61.4967 13.8287 62.0634C15.9061 62.847 18.1061 63.2558 20.3263 63.2709C24.035 63.4722 25.1275 63.4722 34.5 63.4722C43.8725 63.4722 44.965 63.4722 48.6738 63.2709C50.8939 63.2558 53.0939 62.847 55.1713 62.0634C56.6968 61.4967 58.0802 60.6038 59.225 59.4472C60.3746 58.3078 61.2667 56.9353 61.8413 55.4222C62.624 53.3346 63.0328 51.1254 63.0488 48.8959C63.25 45.1872 63.25 44.0947 63.25 34.7222C63.25 25.3497 63.25 24.2572 63.0488 20.5484ZM55.7462 43.5484C55.654 45.3226 55.2753 47.0702 54.625 48.7234C54.0669 50.1025 53.2371 51.3553 52.1851 52.4073C51.1331 53.4593 49.8803 54.289 48.5013 54.8472C46.8323 55.4613 45.075 55.8011 43.2975 55.8534C41.0263 55.8534 40.4225 55.8534 34.5 55.8534C28.5775 55.8534 27.9737 55.8534 25.7025 55.8534C23.925 55.8011 22.1677 55.4613 20.4988 54.8472C19.073 54.3174 17.7855 53.4721 16.7325 52.3747C15.6908 51.3433 14.8863 50.0973 14.375 48.7234C13.7585 47.0563 13.428 45.2969 13.3975 43.5197C13.3975 41.2484 13.3975 40.6447 13.3975 34.7222C13.3975 28.7997 13.3975 28.1959 13.3975 25.9247C13.428 24.1474 13.7585 22.3881 14.375 20.7209C14.9048 19.2952 15.75 18.0077 16.8475 16.9547C17.8835 15.9186 19.1281 15.1149 20.4988 14.5972C22.1677 13.9831 23.925 13.6433 25.7025 13.5909C27.9737 13.5909 28.5775 13.5909 34.5 13.5909C40.4225 13.5909 41.0263 13.5909 43.2975 13.5909C45.075 13.6433 46.8323 13.9831 48.5013 14.5972C49.927 15.127 51.2145 15.9722 52.2675 17.0697C53.3092 18.1011 54.1137 19.347 54.625 20.7209C55.2391 22.3898 55.5789 24.1471 55.6313 25.9247C55.6313 28.1959 55.6313 28.7997 55.6313 34.7222C55.6313 40.6447 55.8325 41.2484 55.7462 43.5197V43.5484ZM51.1463 22.1584C50.8039 21.2297 50.2642 20.3864 49.5644 19.6865C48.8645 18.9867 48.0212 18.447 47.0925 18.1047C45.8174 17.6627 44.4744 17.4486 43.125 17.4722C40.8825 17.4722 40.25 17.4722 34.5 17.4722C28.75 17.4722 28.1175 17.4722 25.875 17.4722C24.5188 17.4854 23.1756 17.7385 21.9075 18.2197C20.993 18.5464 20.1586 19.0641 19.4597 19.7382C18.7607 20.4124 18.2133 21.2276 17.8538 22.1297C17.4362 23.4101 17.2323 24.7505 17.25 26.0972C17.25 28.3397 17.25 28.9722 17.25 34.7222C17.25 40.4722 17.25 41.1047 17.25 43.3472C17.2785 44.7019 17.5311 46.0425 17.9975 47.3147C18.3398 48.2433 18.8795 49.0867 19.5794 49.7866C20.2792 50.4864 21.1226 51.0261 22.0513 51.3684C23.2779 51.8195 24.5688 52.0719 25.875 52.1159C28.1175 52.1159 28.75 52.1159 34.5 52.1159C40.25 52.1159 40.8825 52.1159 43.125 52.1159C44.4812 52.1027 45.8244 51.8496 47.0925 51.3684C48.0212 51.0261 48.8645 50.4864 49.5644 49.7866C50.2642 49.0867 50.8039 48.2433 51.1463 47.3147C51.6274 46.0466 51.8805 44.7034 51.8937 43.3472C51.8937 41.1047 51.8937 40.4722 51.8937 34.7222C51.8937 28.9722 51.8937 28.3397 51.8937 26.0972C51.8946 24.7396 51.641 23.3939 51.1463 22.1297V22.1584ZM34.5 45.7047C33.0591 45.7047 31.6324 45.4204 30.3015 44.8681C28.9707 44.3158 27.7619 43.5064 26.7443 42.4862C25.7268 41.466 24.9206 40.2551 24.3718 38.9228C23.823 37.5905 23.5425 36.1631 23.5462 34.7222C23.5463 32.5488 24.1911 30.4243 25.3992 28.6176C26.6072 26.811 28.3241 25.4033 30.3326 24.5729C32.3411 23.7426 34.5507 23.5267 36.6819 23.9528C38.8131 24.3789 40.7699 25.4278 42.3047 26.9666C43.8395 28.5054 44.8832 30.465 45.3037 32.5973C45.7242 34.7296 45.5026 36.9387 44.667 38.9449C43.8313 40.9512 42.4192 42.6645 40.6094 43.8678C38.7995 45.0711 36.6733 45.7104 34.5 45.7047ZM46 25.8959C45.3645 25.8286 44.7763 25.5286 44.3488 25.0535C43.9214 24.5784 43.6849 23.9619 43.6849 23.3228C43.6849 22.6837 43.9214 22.0672 44.3488 21.5921C44.7763 21.117 45.3645 20.8169 46 20.7497C46.6355 20.8169 47.2237 21.117 47.6512 21.5921C48.0786 22.0672 48.3151 22.6837 48.3151 23.3228C48.3151 23.9619 48.0786 24.5784 47.6512 25.0535C47.2237 25.5286 46.6355 25.8286 46 25.8959Z" fill="#D5FF3F"/>
</g>
</svg>
