<svg width="55" height="55" viewBox="0 0 55 55" fill="none" xmlns="http://www.w3.org/2000/svg">
<g id="linkedin">
<path id="Vector" d="M46.6367 4.9167H8.37066C7.94051 4.91072 7.5134 4.98954 7.11372 5.14865C6.71404 5.30776 6.34961 5.54405 6.04126 5.84401C5.7329 6.14398 5.48666 6.50175 5.31658 6.89689C5.14651 7.29203 5.05594 7.7168 5.05005 8.14695V46.8648C5.05594 47.295 5.14651 47.7197 5.31658 48.1149C5.48666 48.51 5.7329 48.8678 6.04126 49.1677C6.34961 49.4677 6.71404 49.704 7.11372 49.8631C7.5134 50.0222 7.94051 50.101 8.37066 50.0951H46.6367C47.0669 50.101 47.494 50.0222 47.8937 49.8631C48.2934 49.704 48.6578 49.4677 48.9661 49.1677C49.2745 48.8678 49.5207 48.51 49.6908 48.1149C49.8609 47.7197 49.9515 47.295 49.9573 46.8648V8.14695C49.9515 7.7168 49.8609 7.29203 49.6908 6.89689C49.5207 6.50175 49.2745 6.14398 48.9661 5.84401C48.6578 5.54405 48.2934 5.30776 47.8937 5.14865C47.494 4.98954 47.0669 4.91072 46.6367 4.9167ZM18.6713 42.731H11.8946V22.4007H18.6713V42.731ZM15.2829 19.5545C14.3483 19.5545 13.452 19.1832 12.7912 18.5224C12.1303 17.8615 11.759 16.9652 11.759 16.0306C11.759 15.096 12.1303 14.1997 12.7912 13.5388C13.452 12.8779 14.3483 12.5067 15.2829 12.5067C15.7792 12.4504 16.2818 12.4996 16.7577 12.651C17.2337 12.8024 17.6723 13.0526 18.0448 13.3853C18.4174 13.718 18.7154 14.1256 18.9195 14.5814C19.1236 15.0373 19.2291 15.5311 19.2291 16.0306C19.2291 16.53 19.1236 17.0239 18.9195 17.4797C18.7154 17.9356 18.4174 18.3432 18.0448 18.6759C17.6723 19.0085 17.2337 19.2588 16.7577 19.4102C16.2818 19.5616 15.7792 19.6108 15.2829 19.5545ZM43.1128 42.731H36.3361V31.8204C36.3361 29.0871 35.3647 27.3026 32.9025 27.3026C32.1405 27.3082 31.3985 27.5472 30.7765 27.9874C30.1545 28.4277 29.6824 29.048 29.4238 29.7648C29.247 30.2957 29.1704 30.8549 29.1979 31.4138V42.7084H22.4211C22.4211 42.7084 22.4211 24.2304 22.4211 22.3781H29.1979V25.247C29.8135 24.1787 30.7089 23.2987 31.7876 22.7016C32.8663 22.1045 34.0875 21.8131 35.3196 21.8586C39.8374 21.8586 43.1128 24.7726 43.1128 31.0298V42.731Z" fill="#D5FF3F"/>
</g>
</svg>
